<?xml version="1.0" encoding="utf-8"?>
<!-- Generator: Adobe Illustrator 23.0.0, SVG Export Plug-In . SVG Version: 6.00 Build 0)  -->
<svg version="1.1" id="Ebene_1" xmlns="http://www.w3.org/2000/svg" xmlns:xlink="http://www.w3.org/1999/xlink" x="0px" y="0px"
	 viewBox="0 0 128 128" style="enable-background:new 0 0 128 128;" xml:space="preserve">
<style type="text/css">
	.st0{font-family:'AlegreyaSans-Bold';}
	.st1{font-size:72px;}
</style>
<path d="M110,0H18C10.8,0,0,4.8,0,18v92c0,7.2,4.8,18,18,18h92c4.1,0,8.5-1.5,11.7-4c4.1-3.3,6.3-8.1,6.3-13.9V18
	C128,10.8,123.2,0,110,0z M118.1,18v92c0,7.6-6.8,8.1-8.1,8.1H18c-7.2,0-8-5.7-8.1-8.1V18c0-7.4,6.2-8,8.1-8.1h92
	C117.2,9.9,118,15.6,118.1,18z"/>
<text transform="matrix(1 0 0 1 51 83)" class="st0 st1">?</text>
</svg>
